<?xml version="1.0" standalone="no"?>
<!DOCTYPE svg PUBLIC "-//W3C//DTD SVG 20010904//EN"
 "http://www.w3.org/TR/2001/REC-SVG-20010904/DTD/svg10.dtd">
<svg version="1.0" xmlns="http://www.w3.org/2000/svg"
 width="2048.000000pt" height="2048.000000pt" viewBox="0 0 2048.000000 2048.000000"
 preserveAspectRatio="xMidYMid meet">
<metadata>
Created by potrace 1.15, written by Peter Selinger 2001-2017
</metadata>
<g transform="translate(0.000000,2048.000000) scale(0.100000,-0.100000)"
fill="#000000" stroke="none">
<path d="M5630 20131 c0 -8 72 -137 100 -181 6 -8 16 -26 22 -40 7 -14 27 -48
45 -77 18 -29 33 -56 33 -62 0 -5 6 -16 13 -23 7 -7 30 -44 52 -83 21 -38 41
-72 44 -75 3 -3 17 -27 31 -55 14 -27 28 -52 32 -55 4 -3 14 -22 22 -42 9 -20
21 -42 28 -50 7 -7 24 -36 38 -63 14 -28 27 -52 30 -55 12 -12 60 -90 60 -98
0 -5 9 -21 21 -36 l20 -26 3400 0 c1869 0 3399 -3 3399 -7 0 -5 -1532 -7
-3405 -5 l-3404 2 -13 -22 c-7 -13 -11 -26 -10 -30 1 -5 -3 -8 -8 -8 -6 0 -10
-4 -10 -10 0 -5 -34 -66 -75 -135 -41 -69 -75 -129 -75 -135 0 -5 -4 -10 -10
-10 -5 0 -10 -6 -10 -13 0 -7 -21 -45 -46 -86 -25 -40 -40 -71 -33 -69 12 4
47 59 85 133 8 17 33 59 55 95 22 36 47 79 55 95 9 17 26 48 39 70 13 22 34
57 45 78 l20 37 3380 0 c2139 0 3381 -4 3385 -10 3 -5 11 -7 18 -4 14 5 70
-69 82 -107 4 -13 10 -26 14 -29 10 -8 30 -42 47 -78 8 -18 21 -35 29 -38 8
-4 12 -11 9 -16 -4 -6 -3 -13 2 -17 11 -7 34 -48 68 -118 14 -28 32 -56 41
-61 9 -5 16 -12 16 -15 -2 -13 31 -87 38 -87 4 0 13 -16 21 -35 7 -19 21 -37
29 -40 9 -3 17 -16 17 -30 1 -14 13 -40 26 -58 14 -17 33 -50 43 -72 11 -22
25 -44 32 -48 7 -4 13 -13 13 -18 0 -6 10 -25 22 -42 13 -18 23 -34 24 -37 6
-34 53 -102 65 -95 5 4 6 -1 3 -9 -6 -15 22 -75 41 -88 6 -4 10 -11 11 -15 3
-26 26 -63 39 -63 9 0 14 -4 11 -9 -4 -5 5 -29 18 -53 13 -23 35 -63 48 -88
12 -25 26 -47 31 -48 4 -2 16 -24 27 -48 11 -24 26 -44 33 -44 6 0 13 -12 14
-26 0 -15 5 -29 10 -33 10 -8 26 -34 54 -91 13 -25 28 -48 35 -52 6 -4 15 -20
19 -35 3 -16 16 -41 29 -58 12 -16 27 -43 34 -58 6 -15 19 -30 27 -33 8 -4 12
-10 9 -15 -3 -5 4 -23 16 -39 12 -17 18 -30 13 -30 -4 -1 3 -10 17 -21 14 -12
24 -23 22 -25 -7 -11 61 -132 88 -155 11 -9 17 -19 14 -22 -7 -6 36 -87 46
-87 6 0 18 -28 18 -46 0 -3 12 -20 26 -39 14 -18 26 -39 26 -45 0 -6 11 -22
25 -36 14 -13 24 -28 23 -32 -3 -15 33 -81 49 -91 10 -5 17 -13 16 -18 -3 -13
30 -77 47 -90 8 -7 11 -13 6 -13 -5 0 -4 -6 2 -12 11 -14 46 -75 70 -121 8
-16 20 -31 27 -34 8 -2 11 -11 8 -19 -3 -8 -1 -14 5 -14 6 0 13 -13 17 -30 4
-16 10 -30 15 -30 5 0 20 -25 34 -55 15 -30 33 -58 40 -62 8 -4 15 -12 16 -18
6 -31 21 -55 34 -55 9 0 13 -6 10 -14 -6 -16 23 -76 42 -88 7 -4 15 -20 19
-35 3 -16 17 -42 31 -60 13 -17 28 -43 34 -58 5 -14 16 -28 24 -31 8 -3 12
-12 9 -20 -3 -8 -1 -14 5 -14 6 0 13 -13 17 -30 4 -16 12 -33 19 -37 7 -5 22
-28 34 -53 23 -47 43 -82 53 -90 3 -3 11 -20 18 -37 8 -18 17 -33 20 -33 4 0
13 -16 21 -35 7 -19 21 -37 29 -40 9 -3 17 -16 17 -30 1 -14 13 -40 25 -58 13
-17 33 -50 44 -72 11 -22 23 -42 26 -45 3 -3 16 -24 28 -47 12 -24 27 -43 33
-43 6 0 9 -3 5 -6 -3 -3 3 -21 13 -39 10 -18 24 -43 32 -56 7 -13 15 -26 18
-29 3 -3 12 -18 20 -35 8 -16 19 -33 25 -37 5 -4 10 -11 11 -15 3 -26 26 -63
39 -63 9 0 14 -4 11 -9 -8 -12 32 -91 49 -98 8 -3 13 -8 10 -13 -5 -8 21 -62
51 -106 12 -16 24 -37 27 -46 4 -10 12 -18 19 -18 7 0 14 -11 14 -25 1 -14 14
-41 28 -60 15 -19 24 -35 21 -35 -4 0 2 -12 13 -27 10 -16 22 -36 25 -45 4
-10 11 -18 17 -18 5 0 10 -5 10 -11 0 -19 33 -84 47 -92 7 -4 13 -15 13 -23 0
-8 10 -25 23 -37 12 -13 22 -27 23 -32 1 -23 36 -86 49 -91 8 -4 13 -9 11 -13
-2 -3 7 -24 20 -46 12 -22 31 -57 41 -78 10 -20 25 -39 33 -42 8 -3 16 -17 17
-31 0 -15 5 -29 10 -33 11 -8 32 -42 39 -63 4 -10 10 -18 15 -18 5 0 9 -3 8
-7 -2 -15 13 -53 21 -53 5 0 18 -20 30 -45 12 -25 26 -45 31 -45 5 0 8 -3 7
-7 -4 -16 31 -81 49 -92 10 -6 14 -11 9 -11 -5 0 -3 -7 4 -15 22 -27 2 -92
-64 -203 -73 -125 -204 -350 -236 -407 -12 -22 -44 -77 -71 -123 -27 -45 -49
-84 -49 -86 0 -2 -38 -67 -85 -145 -47 -79 -85 -144 -85 -147 0 -2 -38 -68
-84 -146 -81 -138 -333 -574 -365 -631 -9 -16 -20 -36 -26 -46 -5 -9 -41 -70
-79 -136 -38 -66 -99 -172 -136 -235 -115 -197 -244 -421 -307 -530 -33 -58
-93 -161 -133 -228 -39 -68 -85 -149 -102 -180 -17 -32 -34 -62 -39 -67 -4 -6
-56 -94 -114 -195 -59 -102 -116 -201 -127 -220 -12 -19 -32 -55 -46 -80 -14
-25 -44 -76 -67 -115 -23 -38 -53 -90 -67 -115 -45 -81 -250 -435 -258 -445
-4 -5 -21 -35 -38 -65 -16 -30 -87 -154 -157 -275 -71 -121 -139 -240 -153
-265 -14 -25 -52 -89 -84 -143 -32 -53 -58 -100 -58 -102 0 -3 -11 -22 -24
-43 -13 -20 -48 -80 -78 -132 -30 -52 -90 -155 -133 -228 -43 -73 -79 -144
-81 -158 -3 -31 -10 -39 -19 -25 -3 6 0 11 7 11 7 0 2 7 -10 16 -12 8 -22 19
-22 24 0 4 -27 55 -61 112 -34 57 -71 121 -84 144 -30 53 -159 275 -257 441
-43 73 -78 135 -78 137 0 3 -38 68 -85 147 -47 78 -85 144 -85 146 0 3 -27 50
-60 105 -33 54 -60 101 -60 103 0 3 -34 62 -75 131 -41 69 -75 127 -75 129 0
2 -40 71 -90 155 -49 84 -90 154 -90 156 0 2 -24 43 -53 91 -29 48 -67 113
-84 145 -29 52 -87 152 -228 393 -29 50 -68 117 -86 150 -18 33 -50 89 -71
124 -22 35 -37 68 -34 75 4 6 16 27 29 47 12 20 51 86 87 148 36 62 74 128 85
146 27 47 59 103 81 145 11 19 22 37 26 40 4 3 12 17 18 30 6 14 16 34 23 45
65 107 127 215 127 221 0 4 10 21 23 38 12 17 28 42 35 56 7 14 26 48 43 75
17 28 35 62 42 78 6 15 15 27 19 27 4 0 8 6 8 13 0 6 19 41 42 77 23 36 51 83
63 105 27 49 52 92 94 165 34 58 37 63 89 147 17 30 32 56 32 59 0 4 23 45 52
92 28 47 60 102 70 121 10 20 23 43 28 51 19 28 130 220 130 224 0 2 37 66 83
142 45 77 88 150 95 164 6 14 16 32 22 40 19 29 86 145 98 170 12 26 23 44 56
93 10 16 28 47 41 70 12 24 28 53 36 64 12 20 11 26 -9 53 -13 17 -38 59 -56
93 -18 34 -47 85 -64 113 -18 28 -32 55 -32 59 0 4 -8 15 -19 24 -10 9 -22 27
-26 41 -4 14 -19 40 -33 58 -13 17 -22 32 -18 32 3 0 -5 18 -19 40 -14 22 -25
48 -25 57 0 14 -2 15 -9 4 -7 -10 -11 -5 -16 18 -3 17 -11 31 -15 31 -5 0 -6
7 -3 17 4 10 2 14 -4 10 -6 -4 -20 11 -32 36 -12 23 -35 65 -51 92 -17 28 -35
61 -42 75 -7 14 -15 27 -19 30 -12 10 -39 70 -32 70 5 1 -2 9 -13 18 -12 10
-25 28 -28 40 -4 12 -11 22 -16 22 -4 0 -11 11 -14 25 -4 14 -11 25 -16 25 -6
0 -10 5 -10 11 0 7 -10 28 -22 48 -13 20 -24 38 -24 41 -10 34 -18 50 -31 54
-8 3 -12 10 -9 14 3 5 -9 26 -27 47 -18 22 -25 35 -17 30 8 -5 5 4 -8 19 -12
16 -22 35 -22 42 0 8 -4 14 -9 14 -4 0 -23 28 -41 63 -19 34 -37 64 -42 65 -4
2 -6 8 -2 13 3 5 1 9 -5 9 -5 0 -12 13 -16 30 -4 16 -16 37 -28 45 -12 9 -21
19 -21 23 1 4 -2 17 -7 30 -5 13 -9 28 -9 33 0 6 -4 8 -9 5 -7 -5 -25 22 -21
32 0 1 -6 10 -15 18 -8 9 -15 22 -15 30 0 8 -4 14 -9 14 -5 0 -12 12 -16 27
-3 15 -14 34 -23 42 -22 21 -76 121 -65 121 4 0 1 6 -8 13 -9 7 -21 29 -28 50
-7 20 -19 37 -27 37 -8 0 -14 3 -13 8 2 14 -14 52 -22 52 -5 0 -20 25 -34 55
-15 30 -34 59 -43 65 -10 5 -12 10 -5 10 7 0 -10 35 -37 78 -28 44 -50 84 -50
91 0 7 -4 10 -9 7 -5 -3 -12 6 -16 21 -3 15 -16 41 -28 57 -12 17 -22 34 -22
38 0 4 -8 17 -18 28 -10 12 -20 34 -24 51 -3 16 -10 29 -15 29 -5 0 -14 14
-20 32 l-11 32 -10 -25 c-6 -13 -12 -33 -14 -44 -2 -11 -8 -21 -13 -23 -6 -2
-10 -10 -10 -18 0 -9 -4 -12 -10 -9 -5 3 -12 -7 -16 -22 -4 -15 -10 -30 -13
-33 -17 -14 -66 -110 -63 -122 1 -5 -3 -8 -8 -8 -6 0 -15 -10 -20 -22 -5 -13
-21 -41 -35 -63 -14 -22 -30 -51 -37 -65 -6 -14 -21 -35 -32 -48 -12 -13 -19
-24 -18 -25 5 -3 -20 -59 -33 -74 -5 -7 -15 -18 -21 -26 -6 -7 -15 -24 -19
-38 -4 -13 -16 -31 -25 -39 -9 -8 -15 -21 -13 -27 3 -7 0 -13 -5 -13 -5 0 -12
-10 -16 -23 -3 -13 -26 -54 -51 -92 -25 -38 -45 -75 -45 -82 0 -7 -4 -13 -10
-13 -5 0 -10 -7 -10 -15 0 -8 -3 -15 -8 -15 -9 0 -42 -60 -46 -86 -2 -10 -9
-18 -14 -17 -6 2 -17 -15 -23 -37 -7 -22 -15 -40 -19 -40 -4 0 -15 -18 -26
-40 -10 -22 -23 -40 -28 -40 -4 0 -5 -7 -2 -16 3 -8 2 -13 -3 -9 -9 5 -51 -71
-51 -93 0 -7 -4 -12 -8 -12 -5 0 -18 -19 -30 -43 -11 -23 -30 -52 -41 -64 -12
-12 -21 -28 -21 -36 0 -8 -9 -24 -20 -37 -11 -13 -20 -29 -20 -37 0 -7 -4 -13
-10 -13 -5 0 -7 -7 -4 -15 4 -8 1 -15 -5 -15 -6 0 -11 -7 -11 -15 0 -8 -5 -15
-10 -15 -9 0 -32 -42 -34 -63 -1 -5 -8 -14 -17 -20 -9 -7 -20 -23 -24 -37 -4
-14 -17 -38 -29 -55 -21 -29 -50 -87 -46 -93 1 -2 -8 -11 -19 -21 -11 -9 -23
-30 -27 -45 -3 -15 -9 -25 -11 -22 -3 3 -17 -18 -32 -47 -14 -29 -32 -58 -38
-65 -7 -7 -13 -20 -13 -28 0 -8 -5 -14 -11 -14 -6 0 -9 -7 -5 -15 3 -8 1 -15
-4 -15 -6 0 -10 -7 -10 -16 0 -8 -5 -12 -10 -9 -6 4 -13 -7 -16 -24 -4 -17
-10 -31 -14 -31 -4 0 -11 -12 -14 -26 -4 -15 -17 -35 -29 -45 -12 -10 -18 -18
-13 -19 5 0 3 -7 -4 -15 -7 -8 -9 -15 -4 -15 5 0 -2 -7 -14 -16 -12 -8 -22
-20 -22 -26 0 -6 -17 -38 -37 -72 -21 -33 -38 -67 -39 -74 -4 -27 -14 -43 -23
-38 -5 4 -15 -11 -22 -31 -6 -21 -17 -43 -23 -50 -27 -31 -34 -41 -41 -63 -4
-13 -16 -33 -26 -44 -11 -11 -25 -37 -31 -58 -7 -23 -19 -40 -32 -44 -12 -4
-24 -11 -27 -16 -5 -8 -99 140 -99 157 0 5 -9 19 -21 31 -25 27 -29 16 78 199
68 116 167 287 433 750 184 321 392 681 478 830 42 72 99 171 127 220 65 114
162 281 186 320 10 17 41 71 69 120 28 50 61 108 74 130 92 155 226 391 226
397 0 4 -757 8 -1683 8 l-1684 0 -21 -23 c-12 -13 -22 -28 -22 -33 0 -6 -13
-28 -30 -50 -16 -21 -30 -46 -30 -54 -1 -8 -14 -31 -30 -50 -17 -19 -30 -38
-30 -43 0 -4 -23 -46 -50 -93 -28 -47 -50 -87 -50 -91 0 -3 -11 -21 -25 -39
-14 -18 -29 -43 -35 -56 -5 -13 -15 -32 -22 -43 -35 -56 -69 -116 -98 -170
-18 -33 -36 -62 -40 -65 -4 -3 -18 -27 -31 -55 -12 -27 -26 -52 -30 -55 -3 -3
-21 -32 -40 -65 -19 -33 -42 -73 -51 -90 -9 -16 -25 -47 -34 -67 -9 -21 -21
-38 -26 -38 -4 0 -8 -5 -8 -11 0 -6 -13 -30 -30 -54 -16 -24 -30 -46 -30 -49
0 -6 -112 -199 -120 -206 -6 -5 -55 -103 -65 -130 -3 -8 -14 -28 -25 -45 -10
-16 -27 -46 -37 -65 -9 -19 -24 -40 -33 -47 -8 -7 -12 -13 -8 -13 4 0 -11 -33
-35 -73 -23 -40 -51 -90 -61 -110 -11 -20 -22 -37 -26 -37 -3 0 -17 -21 -30
-47 -13 -27 -26 -50 -29 -53 -6 -5 -21 -33 -64 -115 -12 -22 -26 -45 -32 -52
-7 -6 -24 -36 -39 -67 -15 -31 -32 -56 -37 -56 -5 0 -9 -7 -9 -14 0 -8 -13
-34 -28 -58 -16 -24 -34 -58 -42 -75 -7 -18 -16 -33 -20 -33 -4 0 -11 -8 -14
-17 -9 -25 -30 -60 -49 -81 -10 -10 -17 -24 -17 -30 0 -6 -14 -33 -30 -59 -17
-26 -30 -53 -30 -60 0 -7 -4 -13 -10 -13 -5 0 -10 -7 -10 -15 0 -8 -4 -15 -10
-15 -5 0 -10 -8 -10 -18 0 -11 -8 -26 -18 -35 -17 -16 -148 -17 -1680 -17
-1149 0 -1663 3 -1667 11 -7 11 15 62 52 122 27 43 57 95 85 147 11 19 25 44
31 55 7 11 29 49 50 85 21 36 43 72 48 80 5 8 15 26 21 40 12 23 106 185 129
220 5 8 15 26 22 40 6 14 38 68 70 120 31 52 57 98 57 102 0 8 48 87 60 98 3
3 16 28 30 55 14 28 27 52 30 55 3 3 41 67 85 143 44 76 90 155 102 175 12 20
28 48 35 62 6 14 26 48 43 75 17 28 34 58 38 67 3 10 22 43 42 73 19 31 35 58
35 60 0 5 43 78 88 150 7 11 18 31 24 45 7 14 28 50 47 80 31 50 131 225 177
310 10 19 22 37 25 40 15 13 90 163 76 151 -9 -7 -31 -41 -48 -75 -17 -33 -36
-68 -42 -76 -13 -17 -26 -39 -70 -120 -17 -30 -38 -67 -49 -82 -10 -14 -18
-29 -18 -33 0 -3 -16 -31 -35 -61 -19 -30 -35 -58 -35 -63 0 -4 -9 -18 -20
-31 -11 -13 -20 -28 -20 -35 0 -6 -8 -20 -17 -31 -10 -11 -27 -38 -39 -60 -46
-89 -69 -129 -76 -132 -5 -2 -8 -9 -8 -15 0 -6 -29 -59 -65 -118 -36 -58 -65
-111 -65 -116 0 -6 -9 -18 -20 -28 -11 -10 -20 -22 -20 -28 0 -7 -69 -133
-120 -217 -14 -23 -121 -207 -152 -259 -14 -25 -37 -66 -51 -91 -55 -102 -63
-115 -80 -134 -10 -11 -20 -31 -23 -43 -4 -13 -10 -23 -15 -23 -5 0 -9 -5 -9
-12 0 -7 -30 -62 -66 -123 -36 -60 -69 -117 -74 -125 -5 -8 -22 -40 -37 -70
-15 -30 -36 -64 -46 -75 -10 -11 -20 -30 -23 -42 -4 -13 -10 -23 -15 -23 -5 0
-9 -5 -9 -10 0 -9 -34 -72 -73 -134 -77 -126 -98 -156 -107 -156 -16 0 -12
-70 5 -76 8 -3 17 -21 21 -40 3 -19 10 -34 15 -34 5 0 9 -7 9 -15 0 -9 6 -18
14 -21 8 -3 18 -18 21 -34 3 -16 12 -31 19 -33 8 -3 17 -18 20 -34 4 -15 18
-42 32 -60 13 -17 24 -36 24 -42 0 -6 5 -11 11 -11 6 0 9 -9 6 -20 -3 -11 -1
-18 4 -14 5 3 9 -1 9 -8 0 -8 9 -20 19 -28 11 -7 18 -17 15 -21 -2 -4 0 -10 6
-14 6 -4 8 -11 5 -16 -4 -5 -1 -9 4 -9 6 0 11 -9 11 -19 0 -10 7 -21 15 -25 8
-3 15 -12 15 -21 0 -8 5 -15 10 -15 6 0 10 -9 10 -20 0 -10 6 -23 13 -27 7 -4
21 -27 32 -50 11 -24 23 -43 27 -43 3 0 12 -16 18 -35 6 -19 16 -35 21 -35 5
0 9 -6 9 -14 0 -7 6 -19 14 -25 8 -7 17 -23 20 -37 4 -14 18 -37 31 -50 14
-14 25 -31 25 -39 0 -8 5 -15 10 -15 6 0 10 -9 10 -20 0 -11 6 -23 14 -26 8
-3 12 -12 9 -20 -3 -8 -1 -14 5 -14 6 0 13 -13 17 -30 4 -16 11 -30 15 -30 5
0 17 -17 26 -37 10 -21 24 -42 31 -46 7 -4 13 -15 13 -22 0 -8 4 -15 9 -15 5
0 12 -13 16 -30 4 -16 10 -30 15 -30 4 0 13 -14 19 -32 6 -17 22 -46 36 -64
14 -18 25 -37 25 -43 0 -6 5 -11 10 -11 6 0 10 -6 10 -14 0 -8 6 -21 13 -28
15 -15 41 -70 39 -80 -1 -4 7 -12 18 -18 11 -6 18 -15 15 -20 -3 -5 -1 -11 5
-15 5 -3 10 -15 10 -26 0 -10 5 -19 10 -19 6 0 10 -7 10 -15 0 -9 6 -18 14
-21 8 -3 18 -19 21 -35 4 -16 10 -29 13 -29 4 0 18 -21 32 -47 14 -27 30 -54
37 -61 7 -7 13 -20 13 -28 0 -8 4 -14 9 -14 5 0 12 -13 16 -29 3 -16 13 -32
21 -35 8 -3 14 -12 14 -21 0 -8 4 -15 9 -15 5 0 12 -13 16 -29 3 -16 13 -35
21 -42 8 -6 14 -18 14 -25 0 -8 5 -14 10 -14 6 0 10 -7 10 -15 0 -9 6 -18 14
-21 8 -3 17 -21 20 -40 4 -19 11 -34 16 -34 6 0 10 -6 10 -14 0 -8 7 -16 15
-20 8 -3 15 -12 15 -21 0 -8 4 -15 10 -15 5 0 7 -7 4 -15 -4 -8 -1 -15 5 -15
6 0 11 -7 11 -15 0 -8 4 -15 8 -15 5 0 17 -17 26 -37 27 -61 40 -83 48 -83 5
0 8 -7 8 -15 0 -8 5 -15 10 -15 6 0 10 -9 10 -20 0 -10 7 -23 16 -28 9 -5 16
-13 16 -18 0 -5 4 -19 9 -32 5 -13 9 -28 9 -33 0 -5 4 -9 10 -9 5 0 17 -17 26
-37 10 -21 24 -42 31 -46 7 -4 13 -15 13 -22 0 -8 4 -15 9 -15 5 0 12 -13 16
-30 4 -16 10 -30 15 -30 5 0 14 -16 21 -35 7 -19 16 -35 20 -35 4 0 9 -8 13
-17 5 -18 26 -53 36 -63 10 -10 31 -46 43 -72 6 -16 15 -28 19 -28 4 0 8 -9 8
-19 0 -10 7 -22 16 -25 8 -3 13 -10 9 -15 -3 -5 -1 -12 4 -15 5 -3 12 -18 16
-33 3 -15 14 -34 24 -42 10 -9 22 -27 26 -40 7 -23 14 -34 43 -66 7 -8 13 -17
13 -20 -1 -12 14 -41 26 -53 7 -7 13 -20 13 -28 0 -8 4 -14 8 -14 4 0 13 -12
20 -27 23 -51 37 -73 44 -73 4 0 10 -16 14 -35 4 -21 13 -37 25 -40 10 -4 18
-9 17 -13 -2 -11 15 -46 28 -57 6 -5 15 -23 18 -38 4 -16 18 -41 31 -55 14
-15 25 -32 25 -39 0 -7 5 -13 10 -13 6 0 10 -3 9 -7 -2 -15 13 -53 21 -53 4 0
14 -15 21 -33 7 -17 19 -38 26 -45 7 -7 13 -20 13 -28 0 -8 5 -14 10 -14 6 0
10 -7 10 -15 0 -8 3 -15 8 -15 4 0 12 -8 17 -18 10 -18 15 -29 46 -96 24 -50
33 -66 41 -66 5 0 8 -7 8 -15 0 -9 7 -18 15 -21 8 -4 15 -15 15 -25 0 -10 4
-19 9 -19 5 0 12 -12 15 -26 6 -24 12 -34 42 -67 6 -7 11 -15 12 -19 7 -24 17
-45 29 -56 7 -7 13 -20 13 -28 0 -8 5 -14 11 -14 5 0 8 -4 4 -9 -3 -5 3 -16
14 -23 11 -8 23 -26 26 -41 4 -15 11 -27 16 -27 5 0 9 -9 9 -20 0 -10 6 -23
14 -27 8 -4 15 -12 16 -18 4 -24 28 -71 43 -84 10 -7 17 -19 17 -26 0 -6 9
-22 20 -35 11 -13 20 -29 20 -37 0 -7 4 -13 9 -13 5 0 12 -14 16 -30 4 -16 10
-30 15 -30 5 0 14 -16 21 -35 7 -19 17 -35 21 -35 4 0 8 -9 8 -21 0 -11 4 -17
10 -14 5 3 12 -6 16 -20 3 -14 10 -25 14 -25 5 0 11 -13 15 -29 3 -16 13 -32
21 -35 8 -3 14 -15 14 -26 0 -12 11 -31 24 -43 14 -13 28 -35 31 -50 4 -15 12
-27 17 -27 6 0 8 -9 5 -21 -3 -12 -3 -18 0 -15 8 8 25 -14 48 -59 11 -22 24
-43 30 -47 5 -4 10 -11 11 -15 2 -16 18 -48 31 -61 7 -7 13 -20 13 -28 0 -8 4
-14 9 -14 5 0 12 -13 16 -30 3 -16 15 -32 25 -35 11 -3 22 -22 29 -49 6 -24
17 -49 26 -56 8 -7 15 -19 15 -26 0 -8 5 -14 10 -14 6 0 10 -6 10 -14 0 -8 7
-16 15 -20 8 -3 15 -14 15 -25 0 -11 7 -26 15 -34 12 -13 13 -19 1 -41 -7 -14
-16 -23 -20 -19 -4 4 -4 0 0 -10 3 -9 2 -17 -4 -17 -5 0 -13 -12 -16 -26 -4
-14 -16 -35 -27 -47 -11 -12 -22 -32 -25 -44 -4 -13 -10 -23 -15 -23 -5 0 -9
-7 -9 -16 0 -9 -5 -12 -12 -8 -6 4 -9 3 -6 -2 8 -13 -27 -75 -37 -66 -5 4 -5
2 -1 -5 8 -14 -33 -85 -45 -77 -5 3 -6 -2 -3 -10 3 -9 2 -16 -4 -16 -6 0 -13
-14 -17 -30 -4 -17 -11 -30 -16 -30 -5 0 -9 -7 -9 -16 0 -9 -5 -12 -12 -8 -6
4 -8 3 -5 -3 8 -13 -70 -149 -83 -146 -5 2 -7 -4 -4 -12 4 -8 1 -15 -5 -15 -6
0 -11 -8 -11 -18 0 -11 -9 -29 -20 -42 -11 -13 -20 -29 -20 -37 0 -9 -5 -11
-12 -7 -7 4 -10 4 -6 -1 7 -7 -35 -93 -51 -105 -3 -3 -15 -24 -26 -47 -11 -22
-23 -39 -27 -37 -4 3 -5 -2 -2 -10 3 -9 1 -16 -5 -16 -6 0 -11 -9 -11 -20 0
-20 7 -20 3996 -20 2197 0 3993 4 3990 8 -3 5 2 18 12 28 9 10 23 30 30 44 6
14 28 52 47 85 20 33 38 68 42 77 3 10 10 18 16 18 6 0 8 3 4 6 -3 4 5 21 18
39 14 17 25 35 25 38 0 4 24 46 52 94 29 48 59 99 65 113 7 14 21 39 32 55 10
17 27 46 38 65 11 19 34 58 51 86 18 28 32 56 32 63 0 6 5 11 10 11 6 0 10 6
10 13 0 7 26 56 59 108 32 53 66 112 76 132 9 21 21 37 25 37 4 0 11 11 14 24
3 14 12 31 19 38 7 7 18 24 24 38 7 14 28 52 47 85 20 33 43 74 52 92 9 18 22
37 30 44 8 6 14 16 14 21 0 6 17 38 37 72 21 33 38 63 38 66 0 3 26 48 58 102
31 53 57 100 57 106 0 5 7 16 17 23 9 8 22 28 30 44 7 17 17 37 22 45 49 80
85 146 83 153 -1 4 3 7 8 7 6 0 10 7 10 15 0 8 5 15 10 15 6 0 10 6 10 14 0 8
6 21 13 28 6 7 26 40 42 73 17 32 38 68 48 79 10 11 20 31 23 43 4 13 10 23
15 23 5 0 9 5 9 12 0 6 36 71 80 144 44 73 80 135 80 139 0 6 91 158 99 165 3
3 19 30 34 60 32 63 48 92 99 175 35 58 54 91 107 185 13 25 27 47 30 50 6 5
48 81 65 117 6 13 14 23 19 23 4 0 7 6 7 13 0 7 26 56 58 109 33 52 62 102 66
109 3 8 17 32 31 54 13 22 29 50 34 62 6 12 22 41 36 63 14 23 35 57 46 76 10
19 28 50 39 69 11 19 28 50 38 68 11 17 33 55 50 83 18 28 32 56 32 63 0 6 4
11 9 11 5 0 13 9 16 21 6 19 63 117 75 129 3 3 19 32 36 65 61 116 78 145 86
145 4 0 8 5 8 12 0 6 24 50 53 97 29 47 59 101 66 119 7 17 17 32 22 32 5 0 9
5 9 11 0 6 17 39 38 73 20 33 43 72 49 86 7 14 22 39 33 55 11 17 24 40 29 52
6 12 27 51 48 85 21 35 44 72 50 83 7 11 24 42 39 70 14 27 29 52 33 55 4 3
15 21 25 40 10 19 28 53 42 75 13 22 28 50 33 62 6 12 28 51 51 86 22 35 40
69 40 75 0 6 4 12 8 14 8 3 56 78 57 88 1 8 27 54 34 60 3 3 17 28 31 55 14
28 28 52 31 55 3 3 19 30 36 60 16 30 55 97 86 149 31 52 57 97 57 101 0 4 8
18 19 31 10 13 19 27 19 32 1 9 106 189 133 229 11 15 19 30 19 34 0 4 20 40
45 80 25 39 45 75 45 79 0 5 11 22 24 39 26 34 42 76 29 76 -4 0 -14 15 -22
33 -8 17 -36 67 -63 110 -27 43 -53 88 -58 100 -10 22 -21 40 -54 90 -17 26
-44 74 -88 157 -19 37 -29 54 -64 110 -26 41 -81 138 -91 160 -3 8 -15 28 -26
43 -10 16 -29 47 -42 70 -12 23 -31 58 -41 77 -11 19 -22 37 -26 40 -4 3 -14
21 -23 40 -8 19 -49 89 -90 155 -41 66 -74 125 -75 132 0 6 -6 18 -12 25 -7 7
-24 36 -38 63 -14 27 -33 58 -43 70 -10 11 -20 30 -23 42 -4 13 -9 23 -13 23
-4 0 -12 12 -18 28 -7 15 -18 36 -25 47 -20 32 -64 107 -87 148 -12 20 -30 54
-42 75 -12 20 -27 44 -34 52 -8 8 -14 19 -14 23 0 6 -52 100 -82 147 -5 8 -16
29 -24 46 -7 17 -21 36 -29 44 -9 7 -16 17 -16 22 0 6 -20 44 -45 85 -25 40
-45 77 -45 82 0 5 -7 14 -15 21 -8 7 -12 16 -9 21 3 5 2 9 -3 9 -4 0 -13 10
-19 23 -17 37 -59 112 -65 117 -3 3 -14 21 -25 40 -10 19 -25 41 -31 48 -7 7
-13 18 -13 24 0 6 -24 49 -52 97 -68 111 -81 134 -115 201 -15 30 -35 62 -43
72 -15 19 -69 111 -92 158 -7 14 -36 64 -65 111 -29 47 -53 91 -53 97 0 7 -3
12 -8 12 -4 0 -13 15 -21 33 -8 17 -17 34 -20 37 -6 5 -24 36 -58 100 -10 19
-21 37 -25 40 -4 3 -14 21 -23 40 -18 40 -54 103 -64 110 -3 3 -14 21 -24 40
-32 59 -52 95 -57 100 -3 3 -12 19 -20 35 -7 17 -23 44 -34 60 -12 17 -32 53
-46 80 -14 28 -28 52 -31 55 -6 4 -24 35 -57 96 -15 28 -131 226 -142 244 -6
8 -14 24 -19 35 -7 16 -70 124 -131 225 -5 8 -19 34 -30 58 -12 23 -27 42 -33
42 -5 0 -8 3 -4 6 3 4 -5 23 -18 43 -14 19 -25 41 -25 48 0 7 -4 13 -8 13 -4
0 -14 16 -21 35 -7 19 -16 35 -21 35 -4 0 -10 10 -14 23 -3 12 -13 31 -23 42
-10 12 -29 43 -43 70 -14 27 -33 58 -42 69 -10 11 -18 25 -18 32 0 6 -9 23
-21 38 -11 14 -18 26 -15 26 3 0 -9 24 -27 53 -18 28 -38 63 -45 77 -7 14 -26
45 -42 70 -16 25 -33 52 -36 60 -4 8 -32 58 -63 110 -31 52 -60 103 -66 112
-5 10 -23 43 -40 75 -16 32 -32 60 -36 63 -3 3 -14 21 -25 40 -10 19 -21 37
-24 40 -3 3 -17 28 -31 55 -45 86 -64 120 -70 125 -6 5 -18 24 -70 118 -11 20
-25 41 -30 47 -5 5 -9 17 -9 26 0 10 -4 19 -9 21 -8 3 -101 153 -101 163 0 3
-52 92 -87 150 -7 11 -20 34 -28 50 -9 17 -29 53 -44 80 l-28 50 -3992 3
c-2420 1 -3991 -2 -3991 -7z m5723 -9928 c30 -49 64 -108 77 -133 12 -25 26
-47 29 -50 4 -3 12 -16 18 -30 7 -14 39 -70 72 -125 34 -55 65 -109 70 -120 8
-19 107 -187 131 -225 6 -8 14 -24 19 -35 7 -17 104 -181 132 -225 5 -8 15
-26 21 -40 7 -14 34 -61 62 -105 27 -43 55 -93 63 -110 13 -30 23 -47 54 -95
9 -14 70 -117 134 -230 65 -113 126 -218 137 -235 10 -16 21 -37 25 -45 4 -8
40 -70 80 -137 40 -68 73 -127 73 -133 0 -5 5 -10 10 -10 6 0 10 -5 10 -10 0
-6 26 -55 59 -109 32 -54 62 -107 65 -119 4 -12 12 -22 17 -22 5 0 9 -5 9 -10
0 -6 26 -55 58 -108 31 -54 64 -110 72 -125 8 -14 41 -71 73 -126 31 -54 57
-102 57 -105 0 -9 -6718 -7 -6723 2 -2 4 4 21 15 37 10 17 24 42 30 58 7 15
16 27 20 27 4 0 8 7 8 14 0 8 11 27 24 41 13 14 27 38 31 52 3 15 15 38 26 51
10 14 19 30 19 37 0 7 6 18 14 24 8 7 26 36 42 66 15 30 30 55 34 55 3 0 12
16 19 35 7 19 17 35 22 35 5 0 9 7 9 15 0 8 5 15 10 15 6 0 9 3 8 8 -2 12 14
45 38 77 12 17 26 43 30 58 3 16 12 31 19 34 7 2 16 16 20 30 3 14 17 40 31
58 13 17 24 37 24 43 0 7 5 12 10 12 6 0 10 5 10 12 0 6 6 19 14 27 8 9 33 52
56 96 23 44 51 92 61 106 10 15 19 32 19 37 0 6 11 23 24 39 13 15 31 44 40
63 17 37 29 57 62 105 12 17 25 41 29 55 4 14 17 39 29 55 11 17 32 51 46 78
13 26 28 47 32 47 5 0 8 6 8 14 0 8 10 27 23 43 12 15 31 46 42 68 10 22 26
48 34 58 8 9 12 17 8 17 -3 0 6 19 19 43 13 23 27 50 30 60 4 9 10 17 15 17 5
0 9 7 9 15 0 8 4 15 10 15 5 0 21 24 36 53 54 107 80 153 102 184 12 17 22 36
22 42 0 7 7 14 15 17 8 4 15 10 15 15 0 14 26 68 55 114 14 22 30 49 36 60 5
11 21 38 34 60 13 22 36 63 51 90 15 28 30 52 35 53 5 2 9 10 9 18 0 8 4 14 9
14 5 0 12 12 16 27 3 15 15 33 26 41 11 7 18 16 15 20 -2 4 5 21 15 37 11 17
25 44 33 60 8 17 18 33 22 37 4 4 764 8 1690 8 l1683 0 54 -87z"/>
<path d="M5883 18533 c-28 -57 -85 -156 -98 -173 -7 -8 -26 -41 -43 -72 -16
-32 -39 -70 -49 -85 -10 -15 -25 -41 -33 -58 -8 -16 -22 -41 -31 -55 -9 -14
-30 -50 -46 -80 -52 -94 -75 -135 -82 -140 -3 -3 -17 -27 -31 -55 -14 -27 -35
-63 -47 -78 -13 -16 -23 -35 -23 -43 0 -8 -4 -14 -10 -14 -5 0 -10 -7 -10 -15
0 -8 -18 -43 -40 -77 -22 -35 -40 -68 -40 -75 0 -6 -4 -13 -9 -15 -8 -3 -33
-46 -92 -157 -13 -25 -32 -54 -42 -65 -10 -11 -20 -31 -23 -43 -4 -13 -10 -23
-15 -23 -5 0 -9 -5 -9 -11 0 -6 -29 -60 -65 -120 -36 -59 -65 -113 -65 -119 0
-5 -3 -10 -7 -10 -5 0 -21 -28 -38 -61 -16 -34 -35 -64 -42 -66 -7 -3 -13 -12
-13 -20 0 -8 -9 -27 -20 -43 -11 -15 -24 -38 -30 -51 -6 -13 -19 -37 -29 -54
-10 -16 -27 -46 -38 -65 -11 -19 -34 -58 -51 -86 -18 -28 -32 -56 -32 -63 0
-6 -4 -11 -10 -11 -5 0 -10 -5 -10 -10 0 -6 -24 -50 -52 -98 -29 -48 -52 -90
-50 -94 1 -5 -2 -8 -6 -8 -5 0 -17 -18 -28 -40 -10 -22 -22 -40 -26 -40 -5 0
-8 -5 -8 -12 0 -13 -75 -142 -98 -170 -8 -10 -11 -18 -6 -18 5 0 2 -5 -6 -10
-9 -6 -10 -10 -3 -10 7 0 31 33 54 73 24 39 60 101 81 137 20 36 41 70 45 76
4 5 16 26 27 45 62 115 94 171 128 225 21 34 38 64 38 67 0 3 18 34 40 68 22
35 44 73 49 85 5 12 24 45 43 75 53 87 68 112 79 142 6 15 15 27 20 27 5 0 9
5 9 11 0 6 21 46 46 88 25 42 50 83 55 91 5 8 16 29 24 45 9 17 21 39 28 50 6
11 29 49 50 85 21 36 43 72 48 80 5 8 17 31 28 50 33 62 170 295 181 307 5 7
10 14 10 17 0 3 23 45 51 93 28 48 54 95 59 103 5 8 33 55 62 105 29 49 59
101 65 115 7 14 17 32 22 40 12 20 69 116 94 160 11 19 28 49 38 65 39 64 68
125 60 125 -5 0 -17 -17 -28 -37z"/>
<path d="M15465 5845 c-304 -47 -564 -200 -715 -420 -48 -69 -105 -199 -131
-295 -33 -122 -34 -374 -1 -503 44 -177 135 -323 296 -474 147 -139 324 -247
611 -371 491 -213 716 -364 803 -540 37 -76 37 -77 37 -202 0 -126 0 -126 -38
-202 -68 -138 -209 -242 -392 -289 -113 -28 -309 -29 -420 0 -122 32 -212 81
-300 163 -121 113 -201 248 -260 440 l-27 87 -76 -28 c-43 -16 -143 -52 -224
-81 -82 -29 -148 -56 -148 -61 0 -22 82 -255 114 -324 79 -171 211 -333 345
-424 141 -96 327 -164 519 -192 110 -15 460 -6 562 15 484 101 795 427 850
890 9 74 9 124 0 203 -20 189 -74 314 -197 458 -154 181 -351 308 -758 488
-391 173 -544 264 -687 410 -190 192 -183 530 14 712 110 102 237 145 434 145
142 0 240 -21 351 -75 134 -66 277 -225 344 -383 15 -37 32 -68 37 -70 6 -2
109 32 231 75 200 71 220 80 215 98 -22 74 -88 224 -129 293 -150 252 -397
405 -735 457 -116 18 -412 18 -525 0z"/>
<path d="M4030 3990 l0 -1790 654 0 c602 0 663 2 768 19 292 50 538 174 733
368 257 256 407 600 466 1068 20 151 16 560 -5 720 -81 597 -362 1043 -794
1259 -83 42 -239 96 -352 122 -67 16 -150 18 -772 21 l-698 4 0 -1791z m1340
1365 c415 -93 679 -450 754 -1015 46 -354 20 -733 -71 -1014 -141 -438 -413
-678 -810 -716 -60 -5 -244 -10 -410 -10 l-303 0 0 1391 0 1391 383 -5 c308
-4 396 -8 457 -22z"/>
<path d="M10560 3990 l0 -1790 250 0 250 0 2 1441 3 1442 441 -1184 441 -1184
195 -3 196 -2 24 62 c13 35 213 570 444 1189 l419 1127 3 -1444 2 -1444 250 0
250 0 0 1790 0 1790 -353 0 -354 0 -438 -1202 c-241 -662 -439 -1204 -440
-1205 -1 -2 -199 539 -441 1202 l-439 1205 -352 0 -353 0 0 -1790z"/>
<path d="M8405 4983 c-70 -9 -243 -57 -316 -88 -225 -95 -428 -292 -547 -530
-149 -299 -203 -712 -147 -1122 45 -325 172 -600 369 -799 140 -140 304 -232
514 -286 105 -27 137 -31 307 -35 211 -6 305 5 456 53 173 54 387 183 520 312
l79 77 -100 120 c-56 66 -107 126 -114 133 -10 11 -30 0 -105 -56 -117 -88
-261 -163 -375 -196 -161 -47 -371 -52 -506 -12 -163 49 -312 169 -404 327
-58 101 -113 297 -131 467 l-6 62 896 0 897 0 -5 303 c-5 323 -13 402 -63 558
-71 224 -193 405 -354 526 -118 89 -297 159 -464 182 -72 10 -334 13 -401 4z
m354 -418 c226 -60 378 -265 420 -567 5 -40 12 -108 16 -150 l6 -78 -647 0
-647 0 7 65 c8 81 47 234 79 314 41 101 88 171 167 251 81 81 178 138 280 164
72 19 250 20 319 1z"/>
<path d="M725 1648 c-47 -5 -94 -20 -143 -44 -180 -88 -282 -274 -298 -543
-22 -360 116 -624 365 -701 76 -24 230 -27 307 -6 61 16 175 75 223 115 39 32
39 34 -27 111 l-30 35 -24 -21 c-38 -35 -100 -70 -156 -88 -70 -24 -200 -19
-257 9 -90 44 -154 136 -192 275 -24 91 -24 329 1 419 34 126 91 210 175 259
41 24 56 27 136 27 85 0 92 -2 137 -33 34 -23 54 -48 75 -92 15 -32 33 -59 40
-59 6 -1 44 11 83 25 78 29 77 26 40 109 -69 156 -234 230 -455 203z"/>
<path d="M7945 1650 c-144 -16 -239 -75 -295 -184 -32 -64 -35 -76 -35 -160 0
-79 4 -98 28 -148 17 -34 51 -78 86 -111 56 -51 96 -74 302 -171 195 -91 257
-209 166 -313 -44 -50 -99 -73 -176 -73 -84 0 -132 15 -182 59 -38 32 -99 136
-99 169 0 17 -4 16 -92 -15 -89 -30 -89 -28 -38 -140 38 -83 98 -146 179 -186
65 -32 67 -32 211 -32 142 0 146 1 212 32 81 38 142 97 176 172 22 47 27 70
27 146 0 111 -15 147 -97 227 -49 48 -86 71 -241 147 -196 95 -255 139 -277
206 -27 80 18 179 97 211 51 22 159 18 210 -7 49 -24 107 -87 125 -136 7 -18
17 -33 23 -33 17 0 139 41 149 50 13 13 -21 100 -60 153 -78 106 -222 156
-399 137z"/>
<path d="M14535 1648 c-48 -5 -93 -20 -143 -44 -180 -88 -282 -274 -298 -543
-22 -363 116 -625 369 -702 56 -17 88 -20 181 -18 109 4 116 5 195 45 l83 41
16 -33 c14 -31 20 -34 59 -34 l43 0 0 330 0 330 -185 0 -185 0 0 -75 0 -75
105 0 106 0 -3 -152 -3 -153 -70 -35 c-66 -33 -75 -35 -170 -35 -117 0 -154
14 -223 83 -48 48 -82 114 -109 212 -24 91 -24 329 1 419 34 125 91 210 173
258 54 31 168 43 228 23 48 -16 118 -86 136 -134 16 -43 22 -43 122 -6 51 19
57 24 51 43 -12 40 -53 114 -80 146 -72 86 -231 129 -399 109z"/>
<path d="M19735 1650 c-144 -16 -239 -75 -295 -184 -32 -64 -35 -76 -35 -160
0 -79 4 -98 28 -148 17 -34 51 -78 86 -111 56 -51 96 -74 302 -171 195 -91
257 -209 166 -313 -44 -50 -99 -73 -176 -73 -84 0 -132 15 -182 59 -38 32 -99
136 -99 169 0 17 -4 16 -92 -15 -89 -30 -89 -28 -38 -140 38 -83 98 -146 179
-186 65 -32 67 -32 211 -32 142 0 146 1 212 32 81 38 142 97 176 172 22 47 27
70 27 146 0 111 -15 147 -97 227 -49 48 -86 71 -241 147 -196 95 -255 139
-277 206 -27 80 18 179 97 211 51 22 159 18 210 -7 49 -24 107 -87 125 -136 7
-18 17 -33 23 -33 17 0 139 41 149 50 13 13 -21 100 -60 153 -78 106 -222 156
-399 137z"/>
<path d="M10780 1565 l0 -75 170 0 170 0 0 -560 0 -560 90 0 90 0 0 560 0 560
165 0 165 0 0 75 0 75 -425 0 -425 0 0 -75z"/>
<path d="M17430 1565 l0 -75 170 0 170 0 0 -560 0 -560 90 0 90 0 0 560 0 560
165 0 165 0 0 75 0 75 -425 0 -425 0 0 -75z"/>
<path d="M1420 1000 l0 -630 90 0 90 0 0 630 0 630 -90 0 -90 0 0 -630z"/>
<path d="M1932 1138 c3 -488 3 -494 26 -547 72 -170 205 -251 410 -251 54 0
117 5 141 11 109 25 212 103 260 197 47 92 51 137 51 625 l0 457 -90 0 -90 0
0 -433 c0 -532 -7 -578 -94 -655 -44 -38 -91 -52 -181 -52 -114 1 -180 43
-227 145 -23 50 -23 53 -26 523 l-3 472 -90 0 -90 0 3 -492z"/>
<path d="M3160 1000 l0 -630 248 0 c272 0 308 5 411 60 116 62 204 187 248
350 24 92 25 349 0 440 -57 212 -193 359 -368 399 -24 6 -155 11 -291 11
l-248 0 0 -630z m538 449 c87 -43 139 -114 178 -244 26 -85 26 -325 0 -410
-25 -82 -51 -129 -99 -182 -72 -79 -99 -87 -279 -91 l-158 -4 0 481 0 481 148
0 c146 0 150 -1 210 -31z"/>
<path d="M4415 1008 c-98 -343 -180 -629 -183 -636 -3 -10 16 -12 88 -10 l93
3 29 105 c16 58 38 135 49 173 l20 67 223 0 223 0 49 -172 50 -173 91 -3 92
-3 -20 68 c-10 37 -92 323 -181 636 l-162 567 -142 0 -141 0 -178 -622z m495
-140 c0 -5 -80 -8 -178 -8 l-179 0 91 311 90 310 88 -303 c48 -167 88 -306 88
-310z"/>
<path d="M5440 1000 l0 -630 248 0 c272 0 308 5 411 60 116 62 204 187 248
350 24 92 25 349 0 440 -57 212 -193 359 -368 399 -24 6 -155 11 -291 11
l-248 0 0 -630z m538 449 c87 -43 139 -114 178 -244 26 -85 26 -325 0 -410
-25 -82 -51 -129 -99 -182 -72 -79 -99 -87 -279 -91 l-158 -4 0 481 0 481 148
0 c146 0 150 -1 210 -31z"/>
<path d="M6670 1000 l0 -630 355 0 355 0 0 75 0 75 -265 0 -265 0 0 200 0 200
235 0 235 0 0 75 0 75 -235 0 -235 0 0 205 0 205 265 0 265 0 0 75 0 75 -355
0 -355 0 0 -630z"/>
<path d="M9180 1000 l0 -630 90 0 90 0 0 630 0 630 -90 0 -90 0 0 -630z"/>
<path d="M9710 1000 l0 -630 90 0 90 0 2 498 3 499 227 -496 227 -496 130 -3
131 -3 0 631 0 630 -90 0 -90 0 0 -512 0 -513 -233 510 -233 510 -127 3 -127
3 0 -631z"/>
<path d="M11810 1000 l0 -630 355 0 355 0 0 75 0 75 -265 0 -265 0 0 200 0
200 235 0 235 0 0 75 0 75 -235 0 -235 0 0 205 0 205 265 0 265 0 0 75 0 75
-355 0 -355 0 0 -630z"/>
<path d="M12810 1000 l0 -630 310 0 310 0 0 75 0 75 -220 0 -220 0 0 555 0
555 -90 0 -90 0 0 -630z"/>
<path d="M13620 1000 l0 -630 90 0 90 0 0 630 0 630 -90 0 -90 0 0 -630z"/>
<path d="M15360 1000 l0 -630 355 0 355 0 0 75 0 75 -265 0 -265 0 0 200 0
200 235 0 235 0 0 75 0 75 -235 0 -235 0 0 205 0 205 265 0 265 0 0 75 0 75
-355 0 -355 0 0 -630z"/>
<path d="M16360 1000 l0 -630 90 0 90 0 2 498 3 499 227 -496 227 -496 130 -3
131 -3 0 631 0 630 -90 0 -90 0 0 -512 0 -513 -233 510 -233 510 -127 3 -127
3 0 -631z"/>
<path d="M18460 1000 l0 -630 355 0 355 0 0 75 0 75 -265 0 -265 0 0 200 0
200 235 0 235 0 0 75 0 75 -235 0 -235 0 0 205 0 205 265 0 265 0 0 75 0 75
-355 0 -355 0 0 -630z"/>
</g>
</svg>
